<svg width="30" height="30" viewBox="0 0 30 30" fill="none" xmlns="http://www.w3.org/2000/svg">
<circle cx="15" cy="15" r="15" fill="#447878"/>
<path d="M15.0001 11.8758C13.2798 11.8758 11.8759 13.2797 11.8759 15C11.8759 16.7203 13.2798 18.1242 15.0001 18.1242C16.7204 18.1242 18.1243 16.7203 18.1243 15C18.1243 13.2797 16.7204 11.8758 15.0001 11.8758ZM24.3704 15C24.3704 13.7063 24.3821 12.4242 24.3095 11.1328C24.2368 9.63283 23.8946 8.30158 22.7978 7.2047C21.6985 6.10548 20.3696 5.76564 18.8696 5.69298C17.5759 5.62033 16.2939 5.63204 15.0025 5.63204C13.7087 5.63204 12.4267 5.62033 11.1353 5.69298C9.63527 5.76564 8.30402 6.10783 7.20714 7.2047C6.10792 8.30392 5.76808 9.63283 5.69542 11.1328C5.62277 12.4266 5.63449 13.7086 5.63449 15C5.63449 16.2914 5.62277 17.5758 5.69542 18.8672C5.76808 20.3672 6.11027 21.6985 7.20714 22.7953C8.30636 23.8945 9.63527 24.2344 11.1353 24.307C12.429 24.3797 13.711 24.368 15.0025 24.368C16.2962 24.368 17.5782 24.3797 18.8696 24.307C20.3696 24.2344 21.7009 23.8922 22.7978 22.7953C23.897 21.6961 24.2368 20.3672 24.3095 18.8672C24.3845 17.5758 24.3704 16.2938 24.3704 15ZM15.0001 19.807C12.34 19.807 10.1931 17.6602 10.1931 15C10.1931 12.3399 12.34 10.193 15.0001 10.193C17.6603 10.193 19.8071 12.3399 19.8071 15C19.8071 17.6602 17.6603 19.807 15.0001 19.807ZM20.004 11.1188C19.3829 11.1188 18.8814 10.6172 18.8814 9.99611C18.8814 9.37501 19.3829 8.87345 20.004 8.87345C20.6251 8.87345 21.1267 9.37501 21.1267 9.99611C21.1269 10.1436 21.0979 10.2897 21.0416 10.4259C20.9852 10.5622 20.9026 10.6861 20.7983 10.7904C20.694 10.8946 20.5701 10.9773 20.4339 11.0337C20.2976 11.09 20.1515 11.1189 20.004 11.1188Z" fill="#F6FBF4"/>
</svg>
