<svg width="100" height="100" viewBox="0 0 100 100" fill="none" xmlns="http://www.w3.org/2000/svg">
<path d="M69.0415 91.6666C70.1481 91.673 71.2449 91.459 72.268 91.0369C73.291 90.6148 74.2196 89.9932 74.9998 89.2083L86.2915 77.9167C87.0675 77.136 87.5031 76.0799 87.5031 74.9792C87.5031 73.8784 87.0675 72.8223 86.2915 72.0417L69.6248 55.375C68.8441 54.5989 67.7881 54.1633 66.6873 54.1633C65.5865 54.1633 64.5305 54.5989 63.7498 55.375L57.0831 62C52.4675 60.7693 48.1928 58.5037 44.5831 55.375C41.4628 51.7596 39.1983 47.4869 37.9581 42.875L44.5831 36.2083C45.3592 35.4276 45.7948 34.3716 45.7948 33.2708C45.7948 32.17 45.3592 31.114 44.5831 30.3333L27.9165 13.6666C27.1358 12.8906 26.0798 12.455 24.979 12.455C23.8782 12.455 22.8222 12.8906 22.0415 13.6666L10.7915 25C10.0066 25.7802 9.385 26.7088 8.96292 27.7318C8.54085 28.7549 8.32675 29.8517 8.33315 30.9583C8.71116 46.9679 15.1085 62.247 26.2498 73.75C37.7528 84.8913 53.0319 91.2886 69.0415 91.6666ZM24.9998 22.5416L35.7915 33.3333L30.4165 38.7083C29.9074 39.1852 29.5262 39.7822 29.3078 40.4447C29.0894 41.1072 29.0408 41.8139 29.1665 42.5C30.7239 49.4599 34.0211 55.911 38.7498 61.25C44.0846 65.9848 50.5374 69.2829 57.4998 70.8333C58.1756 70.9746 58.8758 70.9457 59.5376 70.7494C60.1995 70.553 60.8021 70.1953 61.2915 69.7083L66.6665 64.2083L77.4581 75L69.1248 83.3333C55.307 82.9775 42.1227 77.463 32.1665 67.875C22.5536 57.9146 17.0232 44.7129 16.6665 30.875L24.9998 22.5416ZM83.3331 45.8333H91.6665C91.7745 40.8791 90.8784 35.9544 89.0321 31.3558C87.1858 26.7573 84.4275 22.5802 80.9236 19.0762C77.4196 15.5722 73.2425 12.814 68.644 10.9677C64.0454 9.1214 59.1207 8.22527 54.1665 8.33331V16.6666C58.0328 16.5329 61.8852 17.1959 65.4844 18.6143C69.0835 20.0327 72.3525 22.1763 75.088 24.9118C77.8235 27.6473 79.9671 30.9163 81.3855 34.5154C82.8039 38.1146 83.4669 41.967 83.3331 45.8333Z" fill="#F6FBF4"/>
<path d="M54.1665 33.3333C62.9165 33.3333 66.6665 37.0833 66.6665 45.8333H74.9998C74.9998 32.4167 67.5832 25 54.1665 25V33.3333Z" fill="#F6FBF4"/>
</svg>
