<svg width="86" height="90" viewBox="0 0 86 90" fill="none" xmlns="http://www.w3.org/2000/svg">
<path d="M72.2918 70.75C74.0835 67.875 75.1252 64.4167 75.1252 60.75C75.1252 50.3334 66.7918 42 56.4168 42C46.0418 42 37.6668 50.3334 37.6668 60.75C37.6668 71.1667 46.0002 79.5 56.4168 79.5C60.0418 79.5 63.4585 78.4584 66.3335 76.6667L79.3335 89.4584L85.1252 83.6667L72.2918 70.75ZM56.4168 71.1667C50.6252 71.1667 46.0002 66.5 46.0002 60.75C46.0002 55 50.6252 50.3334 56.4168 50.3334C62.2085 50.3334 66.7918 55 66.7918 60.75C66.7918 66.5 62.1668 71.1667 56.4168 71.1667ZM83.6668 50.3334H81.3752C80.0002 46.9584 77.9168 43.9584 75.3335 41.4167V33.6667H83.6668V50.3334ZM75.3335 8.66671H62.8335V0.333374H75.3335C77.5436 0.333374 79.6633 1.21135 81.2261 2.77415C82.7889 4.33695 83.6668 6.45657 83.6668 8.66671V21.1667H75.3335V8.66671ZM50.3335 8.66671H33.6668V0.333374H50.3335V8.66671ZM8.66683 0.333374H21.1668V8.66671H8.66683V21.1667H0.333496V8.66671C0.333496 6.45657 1.21147 4.33695 2.77427 2.77415C4.33708 1.21135 6.45669 0.333374 8.66683 0.333374ZM42.0002 83.6667H33.6668V75.3334C35.7502 78.75 38.6668 81.5834 42.0002 83.6667ZM8.66683 75.3334H21.1668V83.6667H8.66683C6.45669 83.6667 4.33708 82.7887 2.77427 81.2259C1.21147 79.6631 0.333496 77.5435 0.333496 75.3334V62.8334H8.66683V75.3334ZM8.66683 50.3334H0.333496V33.6667H8.66683V50.3334Z" fill="#F6FBF4"/>
</svg>
