<svg width="28" height="28" viewBox="0 0 28 28" fill="none" xmlns="http://www.w3.org/2000/svg">
<path fill-rule="evenodd" clip-rule="evenodd" d="M14 24.5C19.7989 24.5 24.5 19.7989 24.5 14C24.5 8.20106 19.7989 3.49998 14 3.49998C8.20109 3.49998 3.50001 8.20106 3.50001 14C3.50001 19.7989 8.20109 24.5 14 24.5ZM14 25.6666C20.4435 25.6666 25.6667 20.4435 25.6667 14C25.6667 7.55648 20.4435 2.33331 14 2.33331C7.55651 2.33331 2.33334 7.55648 2.33334 14C2.33334 20.4435 7.55651 25.6666 14 25.6666Z" fill="#447878"/>
<path d="M7 20.7842C7 20.1816 7.45033 19.6723 8.05 19.6058C12.5504 19.1077 15.47 19.1526 19.9605 19.6169C20.1847 19.6405 20.3973 19.7288 20.5721 19.8711C20.747 20.0135 20.8766 20.2037 20.9452 20.4185C21.0137 20.6333 21.0182 20.8634 20.9581 21.0807C20.898 21.298 20.776 21.4932 20.6068 21.6422C15.3073 26.2617 12.2786 26.1981 7.37333 21.6469C7.13417 21.4252 7 21.1102 7 20.7847V20.7842Z" fill="#447878"/>
<path fill-rule="evenodd" clip-rule="evenodd" d="M19.9004 20.1967C15.4455 19.7359 12.5679 19.6927 8.11361 20.1857C7.96698 20.2027 7.83181 20.2733 7.73397 20.3839C7.63614 20.4944 7.58251 20.6371 7.58336 20.7847C7.58336 20.9516 7.65277 21.1097 7.77002 21.2193C10.2014 23.4745 12.0435 24.4936 13.8443 24.5C15.6514 24.5064 17.5928 23.4955 20.2236 21.203C20.3072 21.1286 20.3674 21.0315 20.3968 20.9236C20.4262 20.8156 20.4237 20.7015 20.3895 20.5949C20.3552 20.4884 20.2908 20.3941 20.204 20.3235C20.1172 20.253 20.0117 20.2091 19.9004 20.1973V20.1967ZM7.98586 19.026C12.5335 18.5226 15.4957 18.5681 20.0212 19.0365C20.3585 19.0717 20.6783 19.2045 20.9413 19.4187C21.2043 19.6328 21.3992 19.919 21.5021 20.2422C21.605 20.5654 21.6114 20.9116 21.5206 21.2383C21.4297 21.5651 21.2456 21.8583 20.9907 22.0821C18.3219 24.4084 16.0994 25.6754 13.8408 25.6667C11.5757 25.6585 9.45119 24.3699 6.97727 22.0745C6.80015 21.9095 6.65894 21.7098 6.56249 21.4878C6.46604 21.2657 6.4164 21.0262 6.41669 20.7842C6.41584 20.3492 6.57548 19.9293 6.86502 19.6048C7.15456 19.2803 7.55366 19.074 7.98586 19.0254V19.026Z" fill="#447878"/>
<path d="M18.6667 11.6667C18.6667 12.9043 18.175 14.0913 17.2998 14.9665C16.4247 15.8417 15.2377 16.3333 14 16.3333C12.7623 16.3333 11.5753 15.8417 10.7002 14.9665C9.82501 14.0913 9.33334 12.9043 9.33334 11.6667C9.33334 10.429 9.82501 9.242 10.7002 8.36683C11.5753 7.49167 12.7623 7 14 7C15.2377 7 16.4247 7.49167 17.2998 8.36683C18.175 9.242 18.6667 10.429 18.6667 11.6667Z" fill="#447878"/>
<path fill-rule="evenodd" clip-rule="evenodd" d="M14 15.1667C14.9283 15.1667 15.8185 14.7979 16.4749 14.1415C17.1313 13.4852 17.5 12.5949 17.5 11.6667C17.5 10.7384 17.1313 9.84817 16.4749 9.19179C15.8185 8.53542 14.9283 8.16667 14 8.16667C13.0718 8.16667 12.1815 8.53542 11.5251 9.19179C10.8688 9.84817 10.5 10.7384 10.5 11.6667C10.5 12.5949 10.8688 13.4852 11.5251 14.1415C12.1815 14.7979 13.0718 15.1667 14 15.1667ZM14 16.3333C15.2377 16.3333 16.4247 15.8417 17.2998 14.9665C18.175 14.0913 18.6667 12.9043 18.6667 11.6667C18.6667 10.429 18.175 9.242 17.2998 8.36683C16.4247 7.49167 15.2377 7 14 7C12.7623 7 11.5753 7.49167 10.7002 8.36683C9.82501 9.242 9.33334 10.429 9.33334 11.6667C9.33334 12.9043 9.82501 14.0913 10.7002 14.9665C11.5753 15.8417 12.7623 16.3333 14 16.3333Z" fill="#447878"/>
</svg>
