<svg width="30" height="30" viewBox="0 0 30 30" fill="none" xmlns="http://www.w3.org/2000/svg">
<circle cx="15" cy="15" r="15" fill="#447878"/>
<g clip-path="url(#clip0_145_135)">
<path d="M25.5417 9.96474C25.4172 9.52037 25.1745 9.11806 24.8396 8.80057C24.4952 8.47333 24.0731 8.23924 23.6131 8.1204C21.8916 7.66665 14.9946 7.66666 14.9946 7.66666C12.1193 7.63394 9.24472 7.77782 6.38708 8.09749C5.92709 8.2251 5.50576 8.46442 5.16058 8.79416C4.82141 9.12049 4.57574 9.52291 4.44741 9.96382C4.13913 11.6246 3.98935 13.3109 4.00008 15C3.98908 16.6876 4.13849 18.3733 4.44741 20.0362C4.57299 20.4752 4.81774 20.8758 5.15783 21.1994C5.49791 21.523 5.92141 21.7567 6.38708 21.8805C8.13149 22.3333 14.9946 22.3333 14.9946 22.3333C17.8735 22.3661 20.7518 22.2222 23.6131 21.9025C24.0731 21.7837 24.4952 21.5496 24.8396 21.2223C25.1744 20.9049 25.4168 20.5025 25.5408 20.0582C25.8572 18.398 26.011 16.711 26.0001 15.0211C26.0239 13.324 25.8703 11.629 25.5417 9.96382V9.96474ZM12.8019 18.1387V11.8622L18.5402 15.0009L12.8019 18.1387Z" fill="#F6FBF4"/>
</g>
<defs>
<clipPath id="clip0_145_135">
<rect width="22" height="22" fill="white" transform="translate(4 4)"/>
</clipPath>
</defs>
</svg>
