<svg width="600" height="231" viewBox="0 0 600 231" fill="none" xmlns="http://www.w3.org/2000/svg">
<path d="M277.736 110.242C288.97 110.242 298.826 112.441 307.302 116.838C315.881 121.236 322.468 127.525 327.064 135.706C331.762 143.785 334.111 153.194 334.111 163.931C334.111 174.669 331.762 184.078 327.064 192.157C322.468 200.133 315.881 206.32 307.302 210.718C298.826 215.115 288.97 217.314 277.736 217.314H240.357V110.242H277.736ZM276.97 199.06C288.204 199.06 296.885 195.992 303.013 189.856C309.14 183.72 312.204 175.078 312.204 163.931C312.204 152.784 309.14 144.092 303.013 137.854C296.885 131.513 288.204 128.343 276.97 128.343H261.804V199.06H276.97ZM421.399 172.982C421.399 176.05 421.195 178.811 420.786 181.265H358.744C359.254 187.401 361.399 192.208 365.178 195.685C368.957 199.162 373.603 200.9 379.118 200.9C387.084 200.9 392.752 197.474 396.123 190.623H419.254C416.803 198.804 412.106 205.553 405.161 210.871C398.216 216.087 389.689 218.694 379.578 218.694C371.408 218.694 364.054 216.905 357.518 213.326C351.084 209.644 346.029 204.48 342.352 197.832C338.778 191.185 336.991 183.515 336.991 174.823C336.991 166.028 338.778 158.307 342.352 151.66C345.927 145.012 350.931 139.899 357.365 136.32C363.799 132.74 371.203 130.951 379.578 130.951C387.646 130.951 394.846 132.689 401.178 136.166C407.612 139.643 412.565 144.603 416.037 151.046C419.612 157.386 421.399 164.698 421.399 172.982ZM399.186 166.846C399.084 161.324 397.093 156.926 393.212 153.654C389.331 150.279 384.582 148.592 378.965 148.592C373.654 148.592 369.161 150.228 365.484 153.5C361.91 156.671 359.714 161.119 358.897 166.846H399.186ZM461.87 218.694C454.925 218.694 448.695 217.467 443.18 215.013C437.666 212.456 433.274 209.03 430.006 204.735C426.84 200.44 425.104 195.685 424.797 190.469H446.397C446.806 193.742 448.389 196.452 451.146 198.599C454.006 200.747 457.529 201.821 461.717 201.821C465.802 201.821 468.968 201.003 471.214 199.366C473.563 197.73 474.738 195.634 474.738 193.077C474.738 190.316 473.308 188.271 470.448 186.941C467.691 185.509 463.249 183.975 457.121 182.339C450.789 180.805 445.58 179.22 441.495 177.584C437.512 175.948 434.04 173.442 431.078 170.067C428.219 166.693 426.789 162.142 426.789 156.415C426.789 151.711 428.117 147.416 430.772 143.529C433.529 139.643 437.41 136.575 442.414 134.326C447.521 132.076 453.495 130.951 460.338 130.951C470.448 130.951 478.517 133.507 484.542 138.621C490.568 143.632 493.887 150.432 494.5 159.023H473.972C473.666 155.648 472.236 152.989 469.683 151.046C467.232 149.001 463.912 147.978 459.725 147.978C455.844 147.978 452.831 148.694 450.687 150.126C448.644 151.557 447.623 153.551 447.623 156.108C447.623 158.972 449.053 161.17 451.912 162.704C454.772 164.136 459.214 165.619 465.24 167.153C471.368 168.687 476.423 170.272 480.406 171.908C484.389 173.544 487.81 176.101 490.67 179.578C493.631 182.953 495.163 187.452 495.266 193.077C495.266 197.986 493.887 202.383 491.129 206.269C488.474 210.155 484.593 213.223 479.487 215.473C474.483 217.621 468.61 218.694 461.87 218.694ZM499.697 174.516C499.697 165.926 501.382 158.307 504.752 151.66C508.224 145.012 512.871 139.899 518.692 136.32C524.616 132.74 531.203 130.951 538.454 130.951C544.786 130.951 550.301 132.229 554.999 134.786C559.799 137.342 563.629 140.564 566.488 144.45V132.331H588.088V217.314H566.488V204.889C563.731 208.877 559.901 212.201 554.999 214.86C550.199 217.416 544.633 218.694 538.301 218.694C531.152 218.694 524.616 216.854 518.692 213.172C512.871 209.491 508.224 204.326 504.752 197.679C501.382 190.929 499.697 183.208 499.697 174.516ZM566.488 174.823C566.488 169.607 565.467 165.159 563.424 161.477C561.382 157.693 558.624 154.83 555.152 152.887C551.68 150.841 547.952 149.819 543.969 149.819C539.986 149.819 536.309 150.79 532.939 152.733C529.569 154.676 526.811 157.54 524.667 161.324C522.624 165.005 521.603 169.403 521.603 174.516C521.603 179.629 522.624 184.129 524.667 188.015C526.811 191.799 529.569 194.713 532.939 196.759C536.411 198.804 540.088 199.827 543.969 199.827C547.952 199.827 551.68 198.855 555.152 196.912C558.624 194.867 561.382 192.003 563.424 188.322C565.467 184.538 566.488 180.038 566.488 174.823Z" fill="#779977" fill-opacity="0.05"/>
<path d="M251.234 45.2524C253.617 41.0766 257.106 37.6678 261.702 35.0259C266.298 32.384 271.532 31.0631 277.404 31.0631C283.702 31.0631 289.362 32.5545 294.383 35.5372C299.404 38.5199 303.361 42.7384 306.255 48.1926C309.149 53.5615 310.596 59.8252 310.596 66.9838C310.596 74.0571 309.149 80.3636 306.255 85.9029C303.361 91.4423 299.362 95.746 294.255 98.8139C289.234 101.882 283.617 103.416 277.404 103.416C271.362 103.416 266.042 102.095 261.447 99.4531C256.937 96.8112 253.532 93.445 251.234 89.3544V102.265H239.617V7.66991H251.234V45.2524ZM298.723 66.9838C298.723 61.7002 297.66 57.0982 295.532 53.178C293.404 49.2578 290.511 46.2751 286.851 44.2298C283.277 42.1845 279.319 41.1618 274.979 41.1618C270.724 41.1618 266.766 42.227 263.106 44.3576C259.532 46.4029 256.638 49.4283 254.425 53.4337C252.297 57.3539 251.234 61.9131 251.234 67.1117C251.234 72.3953 252.297 77.04 254.425 81.0453C256.638 84.9655 259.532 87.9908 263.106 90.1214C266.766 92.1667 270.724 93.1893 274.979 93.1893C279.319 93.1893 283.277 92.1667 286.851 90.1214C290.511 87.9908 293.404 84.9655 295.532 81.0453C297.66 77.04 298.723 72.3528 298.723 66.9838ZM317.717 66.9838C317.717 59.8252 319.163 53.5615 322.057 48.1926C324.951 42.7384 328.908 38.5199 333.929 35.5372C339.036 32.5545 344.695 31.0631 350.908 31.0631C357.036 31.0631 362.355 32.384 366.865 35.0259C371.376 37.6678 374.738 40.9914 376.951 44.9968V32.2136H388.695V102.265H376.951V89.2265C374.653 93.3172 371.206 96.7261 366.61 99.4531C362.1 102.095 356.822 103.416 350.78 103.416C344.567 103.416 338.95 101.882 333.929 98.8139C328.908 95.746 324.951 91.4423 322.057 85.9029C319.163 80.3636 317.717 74.0571 317.717 66.9838ZM376.951 67.1117C376.951 61.828 375.887 57.2261 373.759 53.3058C371.631 49.3856 368.738 46.4029 365.078 44.3576C361.504 42.227 357.546 41.1618 353.206 41.1618C348.865 41.1618 344.908 42.1845 341.334 44.2298C337.759 46.2751 334.908 49.2578 332.78 53.178C330.652 57.0982 329.589 61.7002 329.589 66.9838C329.589 72.3528 330.652 77.04 332.78 81.0453C334.908 84.9655 337.759 87.9908 341.334 90.1214C344.908 92.1667 348.865 93.1893 353.206 93.1893C357.546 93.1893 361.504 92.1667 365.078 90.1214C368.738 87.9908 371.631 84.9655 373.759 81.0453C375.887 77.04 376.951 72.3953 376.951 67.1117ZM438.582 30.9353C447.093 30.9353 453.987 33.5345 459.263 38.733C464.54 43.8463 467.178 51.2605 467.178 60.9757V102.265H455.688V62.6376C455.688 55.6494 453.945 50.3231 450.454 46.6586C446.965 42.9089 442.2 41.034 436.157 41.034C430.029 41.034 425.136 42.9515 421.476 46.7864C417.901 50.6214 416.114 56.2034 416.114 63.5324V102.265H404.497V32.2136H416.114V42.1845C418.412 38.6052 421.519 35.8355 425.433 33.8754C429.434 31.9154 433.816 30.9353 438.582 30.9353ZM496.495 41.801V83.0906C496.495 86.4995 497.219 88.9283 498.665 90.377C500.111 91.7406 502.622 92.4223 506.197 92.4223H514.75V102.265H504.282C497.814 102.265 492.962 100.774 489.729 97.7913C486.495 94.8086 484.878 89.9083 484.878 83.0906V41.801H475.814V32.2136H484.878V14.5728H496.495V32.2136H514.75V41.801H496.495ZM587.039 32.2136V102.265H575.422V91.911C573.209 95.4903 570.102 98.3026 566.102 100.348C562.187 102.308 557.847 103.288 553.081 103.288C547.634 103.288 542.741 102.18 538.4 99.9644C534.06 97.6634 530.613 94.2546 528.06 89.7379C525.592 85.2212 524.358 79.7244 524.358 73.2476V32.2136H535.847V71.7136C535.847 78.6165 537.592 83.9429 541.081 87.6926C544.57 91.3571 549.337 93.1893 555.379 93.1893C561.592 93.1893 566.485 91.2719 570.06 87.4369C573.634 83.602 575.422 78.0199 575.422 70.691V32.2136H587.039Z" fill="#4B2C34" fill-opacity="0.05"/>
<path d="M167.099 111.691V61.4212C167.096 60.5118 166.906 59.6128 166.542 58.78C166.177 57.9471 165.646 57.1983 164.98 56.5798L148.621 41.2602V9.16169C148.621 7.4028 147.923 5.71594 146.681 4.47222C145.439 3.22849 143.755 2.52978 141.998 2.52978H134.117C132.36 2.52978 130.675 3.22849 129.433 4.47222C128.191 5.71594 127.493 7.4028 127.493 9.16169V21.2982L106.631 1.80025C105.403 0.643821 103.78 0 102.094 0C100.408 0 98.7859 0.643821 97.5575 1.80025L39.0767 56.5798C38.4108 57.1983 37.879 57.9471 37.5144 58.78C37.1498 59.6128 36.9602 60.5118 36.9573 61.4212V111.691C36.9608 112.569 37.1384 113.437 37.4794 114.245C37.8205 115.053 38.3184 115.786 38.9442 116.4L89.7425 167.267H114.446L165.245 116.4C166.46 115.137 167.127 113.445 167.099 111.691Z" fill="#779977" fill-opacity="0.05"/>
<path d="M197.764 58.5036H185.511C183.754 58.5036 182.071 59.2023 180.829 60.4461C179.586 61.6898 178.888 63.3767 178.888 65.1355L178.491 116.798C178.487 117.676 178.31 118.544 177.969 119.352C177.628 120.16 177.13 120.893 176.503 121.507L123.52 174.562C122.886 175.184 122.384 175.927 122.042 176.748C121.701 177.568 121.528 178.448 121.533 179.338V215.813C121.533 217.572 122.231 219.258 123.473 220.502C124.715 221.746 126.4 222.445 128.156 222.445H157.231C158.987 222.445 160.672 221.746 161.914 220.502C163.157 219.258 163.854 217.572 163.854 215.813V196.315C163.843 194.94 164.26 193.596 165.046 192.469L202.995 138.484C203.819 137.346 204.259 135.977 204.254 134.572V65.2682C204.272 64.3973 204.117 63.5313 203.801 62.72C203.484 61.9086 203.011 61.1677 202.408 60.5394C201.806 59.9113 201.086 59.4081 200.288 59.0589C199.491 58.7095 198.633 58.5208 197.764 58.5036Z" fill="#4B2C34" fill-opacity="0.05"/>
<path d="M27.4864 121.572C26.8606 120.958 26.3627 120.226 26.0216 119.417C25.6806 118.609 25.5032 117.741 25.4995 116.864V65.2012C25.4995 63.4422 24.8017 61.7554 23.5597 60.5117C22.3176 59.2679 20.633 58.5693 18.8765 58.5693H6.62399C4.86747 58.5693 3.18289 59.2679 1.94083 60.5117C0.698778 61.7554 0.00100537 63.4422 0.00100537 65.2012V134.704C-0.0233085 136.101 0.393929 137.47 1.19314 138.617L39.1429 192.6C39.9289 193.728 40.3454 195.072 40.3349 196.447V215.945C40.3349 217.704 41.0327 219.39 42.2749 220.634C43.5169 221.878 45.2014 222.577 46.9579 222.577H76.0329C77.7894 222.577 79.474 221.878 80.7161 220.634C81.9581 219.39 82.6559 217.704 82.6559 215.945V179.469C82.661 178.581 82.4879 177.7 82.1465 176.879C81.8052 176.059 81.3028 175.316 80.669 174.694L27.4864 121.572Z" fill="#4B2C34" fill-opacity="0.05"/>
</svg>
