<svg width="47" height="18" viewBox="0 0 47 18" fill="none" xmlns="http://www.w3.org/2000/svg">
<g clip-path="url(#clip0_16_469)">
<path d="M21.756 8.624C22.636 8.624 23.408 8.796 24.072 9.14C24.744 9.484 25.26 9.976 25.62 10.616C25.988 11.248 26.172 11.984 26.172 12.824C26.172 13.664 25.988 14.4 25.62 15.032C25.26 15.656 24.744 16.14 24.072 16.484C23.408 16.828 22.636 17 21.756 17H18.828V8.624H21.756ZM21.696 15.572C22.576 15.572 23.256 15.332 23.736 14.852C24.216 14.372 24.456 13.696 24.456 12.824C24.456 11.952 24.216 11.272 23.736 10.784C23.256 10.288 22.576 10.04 21.696 10.04H20.508V15.572H21.696ZM33.0096 13.532C33.0096 13.772 32.9936 13.988 32.9616 14.18H28.1016C28.1416 14.66 28.3096 15.036 28.6056 15.308C28.9016 15.58 29.2656 15.716 29.6976 15.716C30.3216 15.716 30.7656 15.448 31.0296 14.912H32.8416C32.6496 15.552 32.2816 16.08 31.7376 16.496C31.1936 16.904 30.5256 17.108 29.7336 17.108C29.0936 17.108 28.5176 16.968 28.0056 16.688C27.5016 16.4 27.1056 15.996 26.8176 15.476C26.5376 14.956 26.3976 14.356 26.3976 13.676C26.3976 12.988 26.5376 12.384 26.8176 11.864C27.0976 11.344 27.4896 10.944 27.9936 10.664C28.4976 10.384 29.0776 10.244 29.7336 10.244C30.3656 10.244 30.9296 10.38 31.4256 10.652C31.9296 10.924 32.3176 11.312 32.5896 11.816C32.8696 12.312 33.0096 12.884 33.0096 13.532ZM31.2696 13.052C31.2616 12.62 31.1056 12.276 30.8016 12.02C30.4976 11.756 30.1256 11.624 29.6856 11.624C29.2696 11.624 28.9176 11.752 28.6296 12.008C28.3496 12.256 28.1776 12.604 28.1136 13.052H31.2696ZM36.1798 17.108C35.6358 17.108 35.1478 17.012 34.7158 16.82C34.2838 16.62 33.9398 16.352 33.6838 16.016C33.4358 15.68 33.2998 15.308 33.2758 14.9H34.9678C34.9998 15.156 35.1238 15.368 35.3398 15.536C35.5638 15.704 35.8398 15.788 36.1678 15.788C36.4878 15.788 36.7358 15.724 36.9118 15.596C37.0958 15.468 37.1878 15.304 37.1878 15.104C37.1878 14.888 37.0758 14.728 36.8518 14.624C36.6358 14.512 36.2878 14.392 35.8078 14.264C35.3118 14.144 34.9038 14.02 34.5838 13.892C34.2718 13.764 33.9998 13.568 33.7678 13.304C33.5438 13.04 33.4318 12.684 33.4318 12.236C33.4318 11.868 33.5358 11.532 33.7438 11.228C33.9598 10.924 34.2638 10.684 34.6558 10.508C35.0558 10.332 35.5238 10.244 36.0598 10.244C36.8518 10.244 37.4838 10.444 37.9558 10.844C38.4278 11.236 38.6878 11.768 38.7358 12.44H37.1278C37.1038 12.176 36.9918 11.968 36.7918 11.816C36.5998 11.656 36.3398 11.576 36.0118 11.576C35.7078 11.576 35.4718 11.632 35.3038 11.744C35.1438 11.856 35.0638 12.012 35.0638 12.212C35.0638 12.436 35.1758 12.608 35.3998 12.728C35.6238 12.84 35.9718 12.956 36.4438 13.076C36.9238 13.196 37.3198 13.32 37.6318 13.448C37.9438 13.576 38.2118 13.776 38.4358 14.048C38.6678 14.312 38.7878 14.664 38.7958 15.104C38.7958 15.488 38.6878 15.832 38.4718 16.136C38.2638 16.44 37.9598 16.68 37.5598 16.856C37.1678 17.024 36.7078 17.108 36.1798 17.108ZM39.1429 13.652C39.1429 12.98 39.2749 12.384 39.5389 11.864C39.8109 11.344 40.1749 10.944 40.6309 10.664C41.0949 10.384 41.6109 10.244 42.1789 10.244C42.6749 10.244 43.1069 10.344 43.4749 10.544C43.8509 10.744 44.1509 10.996 44.3749 11.3V10.352H46.0669V17H44.3749V16.028C44.1589 16.34 43.8589 16.6 43.4749 16.808C43.0989 17.008 42.6629 17.108 42.1669 17.108C41.6069 17.108 41.0949 16.964 40.6309 16.676C40.1749 16.388 39.8109 15.984 39.5389 15.464C39.2749 14.936 39.1429 14.332 39.1429 13.652ZM44.3749 13.676C44.3749 13.268 44.2949 12.92 44.1349 12.632C43.9749 12.336 43.7589 12.112 43.4869 11.96C43.2149 11.8 42.9229 11.72 42.6109 11.72C42.2989 11.72 42.0109 11.796 41.7469 11.948C41.4829 12.1 41.2669 12.324 41.0989 12.62C40.9389 12.908 40.8589 13.252 40.8589 13.652C40.8589 14.052 40.9389 14.404 41.0989 14.708C41.2669 15.004 41.4829 15.232 41.7469 15.392C42.0189 15.552 42.3069 15.632 42.6109 15.632C42.9229 15.632 43.2149 15.556 43.4869 15.404C43.7589 15.244 43.9749 15.02 44.1349 14.732C44.2949 14.436 44.3749 14.084 44.3749 13.676Z" fill="#779977"/>
<path d="M19.68 3.54C19.8667 3.21333 20.14 2.94667 20.5 2.74C20.86 2.53333 21.27 2.43 21.73 2.43C22.2233 2.43 22.6667 2.54667 23.06 2.78C23.4533 3.01333 23.7633 3.34333 23.99 3.77C24.2167 4.19 24.33 4.68 24.33 5.24C24.33 5.79333 24.2167 6.28667 23.99 6.72C23.7633 7.15333 23.45 7.49 23.05 7.73C22.6567 7.97 22.2167 8.09 21.73 8.09C21.2567 8.09 20.84 7.98667 20.48 7.78C20.1267 7.57333 19.86 7.31 19.68 6.99V8H18.77V0.599998H19.68V3.54ZM23.4 5.24C23.4 4.82667 23.3167 4.46667 23.15 4.16C22.9833 3.85333 22.7567 3.62 22.47 3.46C22.19 3.3 21.88 3.22 21.54 3.22C21.2067 3.22 20.8967 3.30333 20.61 3.47C20.33 3.63 20.1033 3.86667 19.93 4.18C19.7633 4.48667 19.68 4.84333 19.68 5.25C19.68 5.66333 19.7633 6.02667 19.93 6.34C20.1033 6.64667 20.33 6.88333 20.61 7.05C20.8967 7.21 21.2067 7.29 21.54 7.29C21.88 7.29 22.19 7.21 22.47 7.05C22.7567 6.88333 22.9833 6.64667 23.15 6.34C23.3167 6.02667 23.4 5.66 23.4 5.24ZM24.8878 5.24C24.8878 4.68 25.0011 4.19 25.2278 3.77C25.4545 3.34333 25.7645 3.01333 26.1578 2.78C26.5578 2.54667 27.0011 2.43 27.4878 2.43C27.9678 2.43 28.3845 2.53333 28.7378 2.74C29.0911 2.94667 29.3545 3.20667 29.5278 3.52V2.52H30.4478V8H29.5278V6.98C29.3478 7.3 29.0778 7.56667 28.7178 7.78C28.3645 7.98667 27.9511 8.09 27.4778 8.09C26.9911 8.09 26.5511 7.97 26.1578 7.73C25.7645 7.49 25.4545 7.15333 25.2278 6.72C25.0011 6.28667 24.8878 5.79333 24.8878 5.24ZM29.5278 5.25C29.5278 4.83667 29.4445 4.47667 29.2778 4.17C29.1111 3.86333 28.8845 3.63 28.5978 3.47C28.3178 3.30333 28.0078 3.22 27.6678 3.22C27.3278 3.22 27.0178 3.3 26.7378 3.46C26.4578 3.62 26.2345 3.85333 26.0678 4.16C25.9011 4.46667 25.8178 4.82667 25.8178 5.24C25.8178 5.66 25.9011 6.02667 26.0678 6.34C26.2345 6.64667 26.4578 6.88333 26.7378 7.05C27.0178 7.21 27.3278 7.29 27.6678 7.29C28.0078 7.29 28.3178 7.21 28.5978 7.05C28.8845 6.88333 29.1111 6.64667 29.2778 6.34C29.4445 6.02667 29.5278 5.66333 29.5278 5.25ZM34.3556 2.42C35.0223 2.42 35.5623 2.62333 35.9756 3.03C36.389 3.43 36.5956 4.01 36.5956 4.77V8H35.6956V4.9C35.6956 4.35333 35.559 3.93667 35.2856 3.65C35.0123 3.35667 34.639 3.21 34.1656 3.21C33.6856 3.21 33.3023 3.36 33.0156 3.66C32.7356 3.96 32.5956 4.39667 32.5956 4.97V8H31.6856V2.52H32.5956V3.3C32.7756 3.02 33.019 2.80333 33.3256 2.65C33.639 2.49667 33.9823 2.42 34.3556 2.42ZM38.8921 3.27V6.5C38.8921 6.76667 38.9488 6.95667 39.0621 7.07C39.1754 7.17667 39.3721 7.23 39.6521 7.23H40.3221V8H39.5021C38.9954 8 38.6154 7.88333 38.3621 7.65C38.1088 7.41667 37.9821 7.03333 37.9821 6.5V3.27H37.2721V2.52H37.9821V1.14H38.8921V2.52H40.3221V3.27H38.8921ZM45.9847 2.52V8H45.0747V7.19C44.9014 7.47 44.658 7.69 44.3447 7.85C44.038 8.00333 43.698 8.08 43.3247 8.08C42.898 8.08 42.5147 7.99333 42.1747 7.82C41.8347 7.64 41.5647 7.37333 41.3647 7.02C41.1714 6.66667 41.0747 6.23667 41.0747 5.73V2.52H41.9747V5.61C41.9747 6.15 42.1114 6.56667 42.3847 6.86C42.658 7.14667 43.0314 7.29 43.5047 7.29C43.9914 7.29 44.3747 7.14 44.6547 6.84C44.9347 6.54 45.0747 6.10333 45.0747 5.53V2.52H45.9847Z" fill="#4B2C34"/>
<path d="M13.0894 8.73736V4.80485C13.0892 4.73371 13.0743 4.66338 13.0458 4.59823C13.0172 4.53308 12.9756 4.4745 12.9234 4.42612L11.642 3.2277V0.716699C11.642 0.579105 11.5873 0.447146 11.49 0.349852C11.3927 0.252558 11.2608 0.197899 11.1232 0.197899H10.5058C10.3682 0.197899 10.2362 0.252558 10.1389 0.349852C10.0416 0.447146 9.98702 0.579105 9.98702 0.716699V1.66611L8.3528 0.14083C8.25658 0.0503647 8.12949 0 7.99742 0C7.86536 0 7.73826 0.0503647 7.64204 0.14083L3.06104 4.42612C3.00888 4.4745 2.96722 4.53308 2.93866 4.59823C2.9101 4.66338 2.89525 4.73371 2.89502 4.80485V8.73736C2.8953 8.806 2.90921 8.8739 2.93592 8.93713C2.96264 9.00036 3.00164 9.05766 3.05066 9.1057L7.02986 13.0849H8.96498L12.9442 9.1057C13.0394 9.00695 13.0916 8.87452 13.0894 8.73736Z" fill="#779977"/>
<path d="M15.4915 4.57661H14.5317C14.3941 4.57661 14.2622 4.63127 14.1649 4.72857C14.0676 4.82586 14.0129 4.95782 14.0129 5.09541L13.9818 9.13687C13.9815 9.20551 13.9676 9.27341 13.9409 9.33664C13.9142 9.39987 13.8752 9.45717 13.8261 9.50522L9.67573 13.6556C9.62609 13.7043 9.58672 13.7624 9.55999 13.8266C9.53325 13.8908 9.51968 13.9596 9.52009 14.0292V16.8826C9.52009 17.0202 9.57475 17.1521 9.67204 17.2494C9.76934 17.3467 9.9013 17.4014 10.0389 17.4014H12.3164C12.454 17.4014 12.586 17.3467 12.6833 17.2494C12.7806 17.1521 12.8352 17.0202 12.8352 16.8826V15.3573C12.8344 15.2497 12.867 15.1446 12.9286 15.0564L15.9013 10.8333C15.9658 10.7443 16.0003 10.6372 15.9999 10.5273V5.10579C16.0013 5.03766 15.9892 4.96992 15.9644 4.90645C15.9396 4.84298 15.9025 4.78502 15.8553 4.73587C15.8081 4.68673 15.7517 4.64737 15.6892 4.62005C15.6268 4.59272 15.5596 4.57796 15.4915 4.57661Z" fill="#4B2C34"/>
<path d="M2.1531 9.51035C2.10408 9.4623 2.06508 9.405 2.03836 9.34177C2.01165 9.27854 1.99775 9.21064 1.99746 9.142V5.10055C1.99746 4.96295 1.9428 4.83099 1.84551 4.7337C1.74821 4.6364 1.61625 4.58175 1.47866 4.58175H0.518879C0.381285 4.58175 0.249326 4.6364 0.152032 4.7337C0.0547376 4.83099 7.8754e-05 4.96295 7.8754e-05 5.10055V10.5376C-0.00182583 10.6469 0.0308578 10.754 0.093463 10.8437L3.06619 15.0667C3.12776 15.1549 3.16039 15.2601 3.15957 15.3676V16.8929C3.15957 17.0305 3.21423 17.1624 3.31153 17.2597C3.40882 17.357 3.54078 17.4117 3.67837 17.4117H5.95591C6.0935 17.4117 6.22546 17.357 6.32276 17.2597C6.42005 17.1624 6.47471 17.0305 6.47471 16.8929V14.0395C6.47511 13.97 6.46155 13.9011 6.43481 13.8369C6.40807 13.7727 6.36872 13.7146 6.31907 13.6659L2.1531 9.51035Z" fill="#4B2C34"/>
</g>
<defs>
<clipPath id="clip0_16_469">
<rect width="47" height="18" fill="white"/>
</clipPath>
</defs>
</svg>
